<?xml version="1.0" standalone="no"?>
<!DOCTYPE svg PUBLIC "-//W3C//DTD SVG 20010904//EN"
 "http://www.w3.org/TR/2001/REC-SVG-20010904/DTD/svg10.dtd">
<svg version="1.0" xmlns="http://www.w3.org/2000/svg"
 width="512.000000pt" height="512.000000pt" viewBox="0 0 512.000000 512.000000"
 preserveAspectRatio="xMidYMid meet">
<metadata>
Created by potrace 1.14, written by Peter Selinger 2001-2017
</metadata>
<g transform="translate(0.000000,512.000000) scale(0.100000,-0.100000)"
fill="#000000" stroke="none">
<path d="M404 5105 c-191 -41 -349 -201 -390 -394 -21 -99 -21 -4203 0 -4302
42 -196 199 -353 393 -394 102 -22 4204 -22 4306 0 194 41 351 198 393 394 21
99 21 4203 0 4302 -42 195 -200 353 -395 395 -95 20 -4214 19 -4307 -1z m3401
-717 c19 -13 33 -28 31 -33 -2 -6 -78 -120 -170 -254 l-166 -243 63 -72 c158
-181 254 -357 318 -585 93 -331 102 -752 23 -1101 -40 -179 -136 -406 -230
-545 -145 -216 -305 -357 -529 -466 -206 -100 -394 -136 -655 -126 -281 11
-502 78 -710 215 l-74 49 -76 -111 c-42 -61 -122 -180 -179 -264 l-104 -152
-41 24 c-23 14 -41 31 -40 38 1 8 69 113 151 233 83 121 162 239 178 262 l27
42 -62 68 c-260 284 -391 681 -390 1185 2 647 240 1150 679 1437 428 279 1078
269 1504 -23 l67 -46 67 98 c38 54 113 164 168 245 55 80 103 147 108 147 4 0
23 -10 42 -22z"/>
<path d="M2449 4111 c-86 -12 -187 -47 -259 -88 -80 -46 -241 -204 -299 -293
-135 -207 -228 -491 -267 -813 -19 -159 -22 -506 -5 -657 26 -224 90 -466 169
-634 l38 -80 708 1078 708 1078 -59 76 c-117 151 -280 266 -439 310 -84 23
-216 33 -295 23z"/>
<path d="M2592 2524 l-703 -1076 28 -41 c76 -112 214 -232 333 -292 180 -91
388 -105 571 -39 126 46 233 122 330 238 181 213 295 511 350 906 21 147 18
605 -4 750 -24 154 -61 305 -104 420 -31 83 -89 210 -96 210 -1 0 -318 -484
-705 -1076z"/>
</g>
</svg>
